<svg xmlns="http://www.w3.org/2000/svg" viewBox="0 0 24 24" fill="currentColor" stroke="none">
  <path d="M15.1,12.9l2.9-1.7c-0.3-0.3-0.6-0.6-0.8-1l-0.4-0.6l-2.1-3.7l-0.2-0.4C14.2,5,14,4.5,14,4L6.5,8.4c-1.5,0.8-2,2.7-1.1,4.2 l0.2,0.3l-2.4,1.4l-0.3-0.5c-0.3-0.5-0.9-0.7-1.4-0.4c-0.5,0.3-0.7,0.9-0.4,1.4l0.7,1.4c0,0,0,0,0,0l0.7,1.4 C2.8,17.8,3.1,18,3.5,18c0.2,0,0.3,0,0.5-0.1c0.5-0.3,0.7-0.9,0.4-1.4L4.1,16l2.5-1.4c0.4,0.6,1,1.1,1.7,1.3C8.6,16,8.8,16,9.1,16 c0.5,0,1-0.1,1.5-0.4l1.2-0.7l-3.7,6.6C7.9,22,8,22.6,8.5,22.9C9,23.1,9.6,23,9.9,22.5l4.1-7.4l4.1,7.4c0.2,0.3,0.5,0.5,0.9,0.5 c0.2,0,0.3,0,0.5-0.1c0.5-0.3,0.7-0.9,0.4-1.4L15.1,12.9z"/> <path d="M22.4,7.2l-2.7-4.7c-0.3-0.5-0.8-0.9-1.5-1.1c-0.6-0.2-1.3-0.1-1.8,0.2S15.5,2.4,15.3,3c-0.2,0.6-0.1,1.3,0.2,1.8l2.7,4.7 c0.3,0.5,0.8,0.9,1.5,1.1c0.2,0,0.4,0.1,0.6,0.1c0.4,0,0.8-0.1,1.2-0.3c0.5-0.3,0.9-0.8,1.1-1.5C22.8,8.4,22.8,7.7,22.4,7.2z"/>
</svg>