<svg xmlns="http://www.w3.org/2000/svg" viewBox="0 0 24 24" fill="currentColor" stroke="none">
  <path d="M12,1.8C6.3,1.8,1.8,6.3,1.8,12c0,1.1,0.2,2.2,0.5,3.2c0.4,1.3,0.2,3-0.3,4.1c-0.2,0.5-0.1,1.1,0.3,1.5 c0.3,0.3,0.7,0.4,1.1,0.4C3.7,21.2,4,21,4.4,21C5.2,20.7,6,20.4,7.1,21c1.5,0.8,3.2,1.2,4.9,1.2c5.7,0,10.2-4.6,10.2-10.2 S17.7,1.8,12,1.8z M12.4,16.6c-0.1,0.1-0.2,0.1-0.4,0.1s-0.3,0-0.4-0.1c-0.5-0.3-4.4-2.8-4.4-5.5c0-1.6,1.2-2.9,2.8-2.9 c0.7,0,1.3,0.2,2,0.8c0.7-0.5,1.3-0.8,2-0.8c1.5,0,2.8,1.3,2.8,2.9C16.8,13.9,12.8,16.4,12.4,16.6z"/>
</svg>