<svg xmlns="http://www.w3.org/2000/svg" viewBox="0 0 24 24" fill="currentColor" stroke="none">
  <path d="M22.5,9.8c-0.2-0.3-0.6-0.4-1.3-0.6c-1.6-0.4-2.5-2.1-2.1-3.6c0.2-0.7,0.3-1,0.1-1.4c-0.2-0.4-0.5-0.6-1-0.8l-1.7-1 C16,2.1,15.7,1.9,15.3,2c-0.4,0.1-0.7,0.3-1.2,0.8C13,3.9,11,3.9,9.9,2.8C9.4,2.3,9.1,2,8.7,2S8,2.1,7.5,2.3l-1.7,1 C5.3,3.6,5,3.8,4.8,4.2C4.7,4.5,4.8,4.9,4.9,5.6c0.4,1.5-0.6,3.2-2.1,3.6c-0.7,0.2-1,0.3-1.3,0.6c-0.3,0.3-0.3,0.7-0.3,1.2V13 c0,0.5,0,0.9,0.3,1.2c0.2,0.3,0.6,0.4,1.3,0.6c1.6,0.4,2.5,2.1,2.1,3.6c-0.2,0.7-0.3,1.1-0.1,1.4c0.2,0.4,0.5,0.6,1,0.8l1.7,1 C8,21.9,8.3,22.1,8.7,22c0.4-0.1,0.7-0.3,1.2-0.8c1.2-1.2,3.1-1.2,4.3,0c0.5,0.5,0.7,0.8,1.2,0.8c0,0,0.1,0,0.2,0 c0.3,0,0.6-0.2,1-0.4l1.7-1c0.5-0.3,0.8-0.4,1-0.8c0.2-0.4,0.1-0.8-0.1-1.4C19,18.2,19,17.9,19,17.7c0-1.3,0.9-2.5,2.2-2.9 c0.7-0.2,1-0.3,1.3-0.6c0.3-0.3,0.3-0.7,0.3-1.2V11C22.8,10.5,22.8,10.1,22.5,9.8z M12,15.6c-2,0-3.6-1.6-3.6-3.6S10,8.4,12,8.4 s3.6,1.6,3.6,3.6S14,15.6,12,15.6z"/>
</svg>