<svg xmlns="http://www.w3.org/2000/svg" viewBox="0 0 24 24" fill="currentColor" stroke="none">
  <path d="M22.8,9c0,0.3-0.2,0.7-0.6,0.7l-2.4,0.5c-1.7,0.4-3.1,1.8-3.5,3.5l-0.5,2.4c-0.1,0.3-0.4,0.6-0.7,0.6s-0.7-0.2-0.7-0.6 l-0.5-2.4c-0.4-1.7-1.8-3.1-3.5-3.5L7.8,9.7C7.5,9.7,7.2,9.3,7.2,9s0.2-0.7,0.6-0.7l2.4-0.5C12,7.3,13.3,6,13.7,4.2l0.5-2.4 c0.1-0.3,0.4-0.6,0.7-0.6s0.7,0.2,0.7,0.6l0.5,2.4C16.7,6,18,7.3,19.8,7.7l2.4,0.5C22.5,8.3,22.8,8.7,22.8,9z"/> <path d="M12.8,17c0,0.3-0.2,0.7-0.6,0.7l-1.7,0.4c-1.2,0.3-2.1,1.2-2.3,2.3l-0.4,1.7c-0.1,0.3-0.4,0.6-0.7,0.6s-0.7-0.2-0.7-0.6 l-0.4-1.7c-0.3-1.2-1.2-2.1-2.3-2.3l-1.7-0.4c-0.4-0.1-0.6-0.4-0.6-0.7s0.2-0.7,0.6-0.7l1.7-0.4c1.2-0.3,2.1-1.2,2.3-2.3l0.4-1.7 c0.1-0.3,0.4-0.6,0.7-0.6s0.7,0.2,0.7,0.6l0.4,1.7c0.3,1.2,1.2,2.1,2.3,2.3l1.7,0.4C12.5,16.3,12.8,16.7,12.8,17z"/>
</svg>