<svg xmlns="http://www.w3.org/2000/svg" viewBox="0 0 24 24" fill="currentColor" stroke="none">
  <circle cx="12" cy="12" r="4.8"/> <path d="M12,5.4c-0.4,0-0.8-0.3-0.8-0.8V3c0-0.4,0.4-0.8,0.8-0.8s0.8,0.3,0.8,0.8v1.6C12.8,5,12.4,5.4,12,5.4z"/> <path d="M17.2,7.5c-0.2,0-0.4-0.1-0.6-0.2c-0.3-0.3-0.3-0.8,0-1.1l1.1-1.1c0.3-0.3,0.8-0.3,1.1,0c0.3,0.3,0.3,0.8,0,1.1l-1.1,1.1 C17.6,7.5,17.4,7.5,17.2,7.5z"/> <path d="M21,12.8h-1.6c-0.4,0-0.8-0.3-0.8-0.8c0-0.4,0.4-0.8,0.8-0.8H21c0.4,0,0.8,0.3,0.8,0.8C21.8,12.4,21.4,12.8,21,12.8z"/> <path d="M18.4,19.1c-0.2,0-0.4-0.1-0.6-0.2l-1.1-1.1c-0.3-0.3-0.3-0.8,0-1.1c0.3-0.3,0.8-0.3,1.1,0l1.1,1.1c0.3,0.3,0.3,0.8,0,1.1 C18.8,19.1,18.6,19.1,18.4,19.1z"/> <path d="M12,21.8c-0.4,0-0.8-0.4-0.8-0.8v-1.6c0-0.4,0.4-0.8,0.8-0.8s0.8,0.4,0.8,0.8V21C12.8,21.4,12.4,21.8,12,21.8z"/> <path d="M5.6,19.1c-0.2,0-0.4-0.1-0.6-0.2c-0.3-0.3-0.3-0.8,0-1.1l1.1-1.1c0.3-0.3,0.8-0.3,1.1,0c0.3,0.3,0.3,0.8,0,1.1l-1.1,1.1 C6,19.1,5.8,19.1,5.6,19.1z"/> <path d="M4.6,12.8H3c-0.4,0-0.8-0.3-0.8-0.8c0-0.4,0.4-0.8,0.8-0.8h1.6c0.4,0,0.8,0.3,0.8,0.8C5.4,12.4,5,12.8,4.6,12.8z"/> <path d="M6.8,7.5c-0.2,0-0.4-0.1-0.6-0.2L5.1,6.2c-0.3-0.3-0.3-0.8,0-1.1c0.3-0.3,0.8-0.3,1.1,0l1.1,1.1c0.3,0.3,0.3,0.8,0,1.1 C7.2,7.5,7,7.5,6.8,7.5z"/>
</svg>