<svg xmlns="http://www.w3.org/2000/svg" viewBox="0 0 24 24" fill="currentColor" stroke="none">
  <path d="M22.8,9v2c0,1.5,0,2.5-0.1,3.4c-0.1,1-0.4,1.7-1,2.3c-0.5,0.5-1.2,0.8-2.3,1c-0.9,0.1-1.9,0.1-3.4,0.1h-2.8v1.8 c0,0.4,0.3,0.8,0.8,0.8h2c0.4,0,0.8,0.3,0.8,0.8c0,0.4-0.3,0.8-0.8,0.8H8c-0.4,0-0.8-0.3-0.8-0.8c0-0.4,0.3-0.8,0.8-0.8h2 c0.4,0,0.8-0.3,0.8-0.8v-1.8H8c-1.5,0-2.5,0-3.4-0.1c-1-0.1-1.7-0.4-2.3-1c-0.5-0.5-0.8-1.2-1-2.3c-0.1-0.9-0.1-1.9-0.1-3.4V9 c0-1.5,0-2.5,0.1-3.4c0.1-1,0.4-1.7,1-2.3c0.5-0.5,1.2-0.8,2.3-1C5.5,2.2,6.5,2.2,8,2.2h8c1.5,0,2.5,0,3.4,0.1c1,0.1,1.7,0.4,2.3,1 c0.5,0.5,0.8,1.2,1,2.3C22.8,6.5,22.8,7.5,22.8,9z"/>
</svg>