<svg xmlns="http://www.w3.org/2000/svg" viewBox="0 0 24 24" fill="currentColor" stroke="none">
  <path d="M19.24,11.87c-.08,.54-.46,.95-1.27,1.86l-5.54,6.12c-.57,.63-.98,1.09-1.33,1.39-.16,.14-.58,.51-1.08,.51-.16,0-.32-.03-.49-.12-.7-.37-.62-1.22-.59-1.5,.05-.46,.18-1.06,.36-1.9l.69-3.11c.14-.65,.32-1.46,.23-1.58-.1-.12-.92-.12-1.58-.12h-.46c-1.64,0-2.64,0-3.17-.83-.54-.83-.13-1.74,.53-3.25l1.81-4.1c.59-1.33,.91-2.06,1.63-2.53,.72-.47,1.52-.47,2.97-.47h2.09c1.87,0,2.89,0,3.42,.91,.52,.91,.02,1.8-.91,3.43l-1.07,1.89c-.25,.44-.49,.85-.51,.99,0,.11,.06,.21,.15,.27,.13,.05,.6,.05,1.1,.05,1.22,0,1.77,0,2.23,.3,.59,.39,.9,1.1,.79,1.8Z"/>
</svg>